# xmcd
#
# Track frame offsets:
#	150
#	15067
#	39095
#	58710
#	78588
#	89064
#	115663
#	126519
#	147437
#
# Disc length: 2168 seconds
#
# Revision: 1
# Processed by: cddbd v1.5.2PL0 Copyright (c) Steve Scherf et al.
# Submitted via: EasyCDDAExtractor 11.1.0.1
#
DISCID=70087609
DTITLE=Roy Buchanan - Thats What I Am Here For
DYEAR=1973
DGENRE=Blues
TTITLE0=My Baby Gonna Leave Me
TTITLE1=Hey Joe
TTITLE2=Home is Where I Lost Her
TTITLE3=Rodneys Song
TTITLE4=Thats What I Am Here For
TTITLE5=Roys Bluz
TTITLE6=Voices
TTITLE7=Please Dont Turn Me Away
TTITLE8=Nephesh
EXTD=
EXTT0=
EXTT1=
EXTT2=
EXTT3=
EXTT4=
EXTT5=
EXTT6=
EXTT7=
EXTT8=
PLAYORDER=
